<?xml version="1.0" encoding="UTF-8"?>
<svg enable-background="new 800 367.8 872 552" version="1.1" viewBox="800 367.8 872 552" xml:space="preserve" xmlns="http://www.w3.org/2000/svg">
<style type="text/css">
	.st0{fill:#203468;}
	.st1{fill:#52C5D5;}
	.st2{fill:#7BD0E0;}
	.st3{fill:#51C2B7;}
	.st4{fill:#2192B8;}
	.st5{fill:#B4DAEB;}
	.st6{fill:#114B8A;}
	.st7{fill:#1D7E9A;}
	.st8{fill:#CDEBF2;}
</style>
<rect class="st0" x="843.3" y="819.7" width="24" height="24"/>
<rect class="st0" x="843.3" y="793.1" width="24" height="24"/>
<rect class="st1" x="843.3" y="766.6" width="24" height="24"/>
<rect class="st0" x="843.3" y="713.6" width="24" height="24"/>
<rect class="st0" x="843.3" y="687.1" width="24" height="24"/>
<rect class="st2" x="843.3" y="660.5" width="24" height="24"/>
<rect class="st3" x="843.3" y="634" width="24" height="24"/>
<rect class="st0" x="843.3" y="607.5" width="24" height="24"/>
<rect class="st1" x="843.3" y="581" width="24" height="24"/>
<rect class="st0" x="843.3" y="554.5" width="24" height="24"/>
<rect class="st0" x="843.3" y="527.9" width="24" height="24"/>
<rect class="st0" x="843.3" y="501.4" width="24" height="24"/>
<rect class="st2" x="843.3" y="474.9" width="24" height="24"/>
<rect class="st0" x="843.3" y="448.4" width="24" height="24"/>
<rect class="st4" x="870.3" y="819.7" width="24" height="24"/>
<rect class="st0" x="870.3" y="793.1" width="24" height="24"/>
<rect class="st1" x="870.3" y="766.6" width="24" height="24"/>
<rect class="st0" x="870.3" y="740.1" width="24" height="24"/>
<rect class="st0" x="870.3" y="713.6" width="24" height="24"/>
<rect class="st0" x="870.3" y="687.1" width="24" height="24"/>
<rect class="st0" x="870.3" y="660.5" width="24" height="24"/>
<rect class="st0" x="870.3" y="634" width="24" height="24"/>
<rect class="st0" x="870.3" y="607.5" width="24" height="24"/>
<rect class="st0" x="870.3" y="554.5" width="24" height="24"/>
<rect class="st2" x="870.3" y="527.9" width="24" height="24"/>
<rect class="st0" x="870.3" y="501.4" width="24" height="24"/>
<rect class="st0" x="870.3" y="474.9" width="24" height="24"/>
<rect class="st0" x="870.3" y="448.4" width="24" height="24"/>
<rect class="st0" x="870.3" y="421.9" width="24" height="24"/>
<rect class="st0" x="897.7" y="819.7" width="24" height="24"/>
<rect class="st0" x="897.7" y="793.1" width="24" height="24"/>
<rect class="st5" x="897.7" y="766.6" width="24" height="24"/>
<rect class="st0" x="897.7" y="740.1" width="24" height="24"/>
<rect class="st6" x="897.7" y="713.6" width="24" height="24"/>
<rect class="st6" x="897.7" y="687.1" width="24" height="24"/>
<rect class="st6" x="897.7" y="660.5" width="24" height="24"/>
<rect class="st6" x="897.7" y="634" width="24" height="24"/>
<rect class="st0" x="897.7" y="607.5" width="24" height="24"/>
<rect class="st0" x="897.7" y="581" width="24" height="24"/>
<rect class="st0" x="897.7" y="554.5" width="24" height="24"/>
<rect class="st1" x="897.7" y="527.9" width="24" height="24"/>
<rect class="st0" x="897.7" y="501.4" width="24" height="24"/>
<rect class="st5" x="897.7" y="474.9" width="24" height="24"/>
<rect class="st5" x="897.7" y="448.4" width="24" height="24"/>
<rect class="st5" x="897.7" y="421.9" width="24" height="24"/>
<rect class="st4" x="924.7" y="819.7" width="24" height="24"/>
<rect class="st0" x="924.7" y="793.1" width="24" height="24"/>
<rect class="st0" x="924.7" y="766.6" width="24" height="24"/>
<rect class="st6" x="924.7" y="740.1" width="24" height="24"/>
<rect class="st6" x="924.7" y="713.6" width="24" height="24"/>
<rect class="st5" x="924.7" y="687.1" width="24" height="24"/>
<rect class="st4" x="924.7" y="660.5" width="24" height="24"/>
<rect class="st6" x="924.7" y="634" width="24" height="24"/>
<rect class="st4" x="924.7" y="607.5" width="24" height="24"/>
<rect class="st1" x="924.7" y="581" width="24" height="24"/>
<rect class="st4" x="924.7" y="554.5" width="24" height="24"/>
<rect class="st0" x="924.7" y="527.9" width="24" height="24"/>
<rect class="st5" x="924.7" y="501.4" width="24" height="24"/>
<rect class="st5" x="924.7" y="474.9" width="24" height="24"/>
<rect class="st7" x="924.7" y="448.4" width="24" height="24"/>
<rect class="st0" x="952" y="819.7" width="24" height="24"/>
<rect class="st0" x="952" y="793.1" width="24" height="24"/>
<rect class="st4" x="952" y="766.6" width="24" height="24"/>
<rect class="st6" x="952" y="740.1" width="24" height="24"/>
<rect class="st1" x="952" y="713.6" width="24" height="24"/>
<rect class="st6" x="952" y="687.1" width="24" height="24"/>
<rect class="st6" x="952" y="660.5" width="24" height="24"/>
<rect class="st6" x="952" y="634" width="24" height="24"/>
<rect class="st4" x="952" y="607.5" width="24" height="24"/>
<rect class="st4" x="952" y="581" width="24" height="24"/>
<rect class="st4" x="952" y="554.5" width="24" height="24"/>
<rect class="st4" x="952" y="527.9" width="24" height="24"/>
<rect class="st1" x="952" y="501.4" width="24" height="24"/>
<rect class="st5" x="952" y="448.4" width="24" height="24"/>
<rect class="st5" x="952" y="421.9" width="24" height="24"/>
<rect class="st1" x="979" y="819.7" width="24" height="24"/>
<rect class="st0" x="979" y="793.1" width="24" height="24"/>
<rect class="st6" x="979" y="766.6" width="24" height="24"/>
<rect class="st6" x="979" y="740.1" width="24" height="24"/>
<rect class="st6" x="979" y="713.6" width="24" height="24"/>
<rect class="st6" x="979" y="687.1" width="24" height="24"/>
<rect class="st6" x="979" y="660.5" width="24" height="24"/>
<rect class="st1" x="979" y="634" width="24" height="24"/>
<rect class="st4" x="979" y="607.5" width="24" height="24"/>
<rect class="st4" x="979" y="554.5" width="24" height="24"/>
<rect class="st1" x="979" y="527.9" width="24" height="24"/>
<rect class="st5" x="979" y="501.4" width="24" height="24"/>
<rect class="st7" x="979" y="448.4" width="24" height="24"/>
<rect class="st2" x="979" y="421.9" width="24" height="24"/>
<rect class="st0" x="1006.4" y="819.7" width="24" height="24"/>
<rect class="st6" x="1006.4" y="793.1" width="24" height="24"/>
<rect class="st6" x="1006.4" y="766.6" width="24" height="24"/>
<rect class="st6" x="1006.4" y="740.1" width="24" height="24"/>
<rect class="st6" x="1006.4" y="687.1" width="24" height="24"/>
<rect class="st6" x="1006.4" y="660.5" width="24" height="24"/>
<rect class="st6" x="1006.4" y="634" width="24" height="24"/>
<rect class="st4" x="1006.4" y="607.5" width="24" height="24"/>
<rect class="st4" x="1006.4" y="581" width="24" height="24"/>
<rect class="st6" x="1006.4" y="554.5" width="24" height="24"/>
<rect class="st4" x="1006.4" y="527.9" width="24" height="24"/>
<rect class="st5" x="1006.4" y="501.4" width="24" height="24"/>
<rect class="st0" x="1033.4" y="819.7" width="24" height="24"/>
<rect class="st6" x="1033.4" y="793.1" width="24" height="24"/>
<rect class="st6" x="1033.4" y="766.6" width="24" height="24"/>
<rect class="st6" x="1033.4" y="740.1" width="24" height="24"/>
<rect class="st6" x="1033.4" y="713.6" width="24" height="24"/>
<rect class="st6" x="1033.4" y="687.1" width="24" height="24"/>
<rect class="st4" x="1033.4" y="660.5" width="24" height="24"/>
<rect class="st6" x="1033.4" y="634" width="24" height="24"/>
<rect class="st4" x="1033.4" y="607.5" width="24" height="24"/>
<rect class="st4" x="1033.4" y="581" width="24" height="24"/>
<rect class="st4" x="1033.4" y="554.5" width="24" height="24"/>
<rect class="st4" x="1033.4" y="527.9" width="24" height="24"/>
<rect class="st5" x="1033.4" y="501.4" width="24" height="24"/>
<rect class="st1" x="1033.4" y="474.9" width="24" height="24"/>
<rect class="st0" x="1060.8" y="819.7" width="24" height="24"/>
<rect class="st4" x="1060.8" y="793.1" width="24" height="24"/>
<rect class="st5" x="1060.8" y="766.6" width="24" height="24"/>
<rect class="st4" x="1060.8" y="740.1" width="24" height="24"/>
<rect class="st4" x="1060.8" y="713.6" width="24" height="24"/>
<rect class="st6" x="1060.8" y="687.1" width="24" height="24"/>
<rect class="st6" x="1060.8" y="660.5" width="24" height="24"/>
<rect class="st4" x="1060.8" y="634" width="24" height="24"/>
<rect class="st4" x="1060.8" y="607.5" width="24" height="24"/>
<rect class="st4" x="1060.8" y="581" width="24" height="24"/>
<rect class="st5" x="1060.8" y="527.9" width="24" height="24"/>
<rect class="st5" x="1060.8" y="501.4" width="24" height="24"/>
<rect class="st0" x="1060.8" y="474.9" width="24" height="24"/>
<rect class="st2" x="1060.8" y="448.4" width="24" height="24"/>
<rect class="st2" x="1060.8" y="421.9" width="24" height="24"/>
<rect class="st0" x="1087.8" y="819.7" width="24" height="24"/>
<rect class="st6" x="1087.8" y="793.1" width="24" height="24"/>
<rect class="st6" x="1087.8" y="766.6" width="24" height="24"/>
<rect class="st6" x="1087.8" y="740.1" width="24" height="24"/>
<rect class="st6" x="1087.8" y="713.6" width="24" height="24"/>
<rect class="st6" x="1087.8" y="687.1" width="24" height="24"/>
<rect class="st4" x="1087.8" y="660.5" width="24" height="24"/>
<rect class="st4" x="1087.8" y="634" width="24" height="24"/>
<rect class="st4" x="1087.8" y="607.5" width="24" height="24"/>
<rect class="st5" x="1087.8" y="581" width="24" height="24"/>
<rect class="st4" x="1087.8" y="554.5" width="24" height="24"/>
<rect class="st5" x="1087.8" y="448.4" width="24" height="24"/>
<rect class="st5" x="1087.8" y="421.9" width="24" height="24"/>
<rect class="st0" x="1115.2" y="819.7" width="24" height="24"/>
<rect class="st6" x="1115.2" y="793.1" width="24" height="24"/>
<rect class="st6" x="1115.2" y="766.6" width="24" height="24"/>
<rect class="st6" x="1115.2" y="740.1" width="24" height="24"/>
<rect class="st6" x="1115.2" y="713.6" width="24" height="24"/>
<rect class="st6" x="1115.2" y="687.1" width="24" height="24"/>
<rect class="st4" x="1115.2" y="660.5" width="24" height="24"/>
<rect class="st4" x="1115.2" y="634" width="24" height="24"/>
<rect class="st4" x="1115.2" y="607.5" width="24" height="24"/>
<rect class="st4" x="1115.2" y="581" width="24" height="24"/>
<rect class="st1" x="1115.2" y="554.5" width="24" height="24"/>
<rect class="st5" x="1115.2" y="527.9" width="24" height="24"/>
<rect class="st5" x="1115.2" y="501.4" width="24" height="24"/>
<rect class="st2" x="1115.2" y="474.9" width="24" height="24"/>
<rect class="st0" x="1142.2" y="819.7" width="24" height="24"/>
<rect class="st6" x="1142.2" y="793.1" width="24" height="24"/>
<rect class="st6" x="1142.2" y="766.6" width="24" height="24"/>
<rect class="st6" x="1142.2" y="740.1" width="24" height="24"/>
<rect class="st2" x="1142.2" y="713.6" width="24" height="24"/>
<rect class="st2" x="1142.2" y="687.1" width="24" height="24"/>
<rect class="st2" x="1142.2" y="660.5" width="24" height="24"/>
<rect class="st0" x="1142.2" y="634" width="24" height="24"/>
<rect class="st5" x="1142.2" y="527.9" width="24" height="24"/>
<rect class="st5" x="1142.2" y="501.4" width="24" height="24"/>
<rect class="st5" x="1142.2" y="474.9" width="24" height="24"/>
<rect class="st5" x="1142.2" y="448.4" width="24" height="24"/>
<rect class="st5" x="1142.2" y="421.9" width="24" height="24"/>
<rect class="st0" x="1169.6" y="819.7" width="24" height="24"/>
<rect class="st2" x="1169.6" y="793.1" width="24" height="24"/>
<rect class="st6" x="1169.6" y="766.6" width="24" height="24"/>
<rect class="st6" x="1169.6" y="740.1" width="24" height="24"/>
<rect class="st6" x="1169.6" y="713.6" width="24" height="24"/>
<rect class="st2" x="1169.6" y="687.1" width="24" height="24"/>
<rect class="st6" x="1169.6" y="660.5" width="24" height="24"/>
<rect class="st0" x="1169.6" y="634" width="24" height="24"/>
<rect class="st0" x="1169.6" y="607.5" width="24" height="24"/>
<rect class="st0" x="1169.6" y="581" width="24" height="24"/>
<rect class="st5" x="1169.6" y="554.5" width="24" height="24"/>
<rect class="st7" x="1169.6" y="527.9" width="24" height="24"/>
<rect class="st5" x="1169.6" y="501.4" width="24" height="24"/>
<rect class="st7" x="1169.6" y="474.9" width="24" height="24"/>
<rect class="st5" x="1169.6" y="448.4" width="24" height="24"/>
<rect class="st0" x="1196.6" y="819.7" width="24" height="24"/>
<rect class="st4" x="1196.6" y="793.1" width="24" height="24"/>
<rect class="st2" x="1196.6" y="766.6" width="24" height="24"/>
<rect class="st4" x="1196.6" y="740.1" width="24" height="24"/>
<rect class="st4" x="1196.6" y="713.6" width="24" height="24"/>
<rect class="st2" x="1196.6" y="687.1" width="24" height="24"/>
<rect class="st2" x="1196.6" y="660.5" width="24" height="24"/>
<rect class="st2" x="1196.6" y="634" width="24" height="24"/>
<rect class="st0" x="1196.6" y="607.5" width="24" height="24"/>
<rect class="st0" x="1196.6" y="581" width="24" height="24"/>
<rect class="st5" x="1196.6" y="554.5" width="24" height="24"/>
<rect class="st5" x="1196.6" y="527.9" width="24" height="24"/>
<rect class="st5" x="1196.6" y="474.9" width="24" height="24"/>
<rect class="st5" x="1196.6" y="448.4" width="24" height="24"/>
<rect class="st7" x="1196.6" y="421.9" width="24" height="24"/>
<rect class="st0" x="1224" y="819.7" width="24" height="24"/>
<rect class="st4" x="1224" y="793.1" width="24" height="24"/>
<rect class="st2" x="1224" y="766.6" width="24" height="24"/>
<rect class="st2" x="1224" y="740.1" width="24" height="24"/>
<rect class="st4" x="1224" y="713.6" width="24" height="24"/>
<rect class="st2" x="1224" y="687.1" width="24" height="24"/>
<rect class="st2" x="1224" y="660.5" width="24" height="24"/>
<rect class="st2" x="1224" y="634" width="24" height="24"/>
<rect class="st0" x="1224" y="607.5" width="24" height="24"/>
<rect class="st0" x="1224" y="581" width="24" height="24"/>
<rect class="st5" x="1224" y="554.5" width="24" height="24"/>
<rect class="st5" x="1224" y="501.4" width="24" height="24"/>
<rect class="st5" x="1224" y="474.9" width="24" height="24"/>
<rect class="st5" x="1224" y="448.4" width="24" height="24"/>
<rect class="st5" x="1224" y="421.9" width="24" height="24"/>
<rect class="st2" x="1251" y="819.7" width="24" height="24"/>
<rect class="st2" x="1251" y="793.1" width="24" height="24"/>
<rect class="st2" x="1251" y="766.6" width="24" height="24"/>
<rect class="st2" x="1251" y="740.1" width="24" height="24"/>
<rect class="st6" x="1251" y="713.6" width="24" height="24"/>
<rect class="st2" x="1251" y="687.1" width="24" height="24"/>
<rect class="st2" x="1251" y="660.5" width="24" height="24"/>
<rect class="st4" x="1251" y="634" width="24" height="24"/>
<rect class="st8" x="1251" y="607.5" width="24" height="24"/>
<rect class="st8" x="1251" y="581" width="24" height="24"/>
<rect class="st4" x="1251" y="554.5" width="24" height="24"/>
<rect class="st5" x="1251" y="527.9" width="24" height="24"/>
<rect class="st2" x="1251" y="501.4" width="24" height="24"/>
<rect class="st1" x="1278.3" y="819.7" width="24" height="24"/>
<rect class="st2" x="1278.3" y="793.1" width="24" height="24"/>
<rect class="st6" x="1278.3" y="766.6" width="24" height="24"/>
<rect class="st2" x="1278.3" y="740.1" width="24" height="24"/>
<rect class="st6" x="1278.3" y="713.6" width="24" height="24"/>
<rect class="st2" x="1278.3" y="687.1" width="24" height="24"/>
<rect class="st2" x="1278.3" y="660.5" width="24" height="24"/>
<rect class="st8" x="1278.3" y="634" width="24" height="24"/>
<rect class="st1" x="1278.3" y="607.5" width="24" height="24"/>
<rect class="st8" x="1278.3" y="581" width="24" height="24"/>
<rect class="st8" x="1278.3" y="554.5" width="24" height="24"/>
<rect class="st8" x="1278.3" y="527.9" width="24" height="24"/>
<rect class="st5" x="1278.3" y="501.4" width="24" height="24"/>
<rect class="st2" x="1278.3" y="474.9" width="24" height="24"/>
<rect class="st5" x="1278.3" y="448.4" width="24" height="24"/>
<rect class="st6" x="1305.3" y="819.7" width="24" height="24"/>
<rect class="st2" x="1305.3" y="766.6" width="24" height="24"/>
<rect class="st1" x="1305.3" y="740.1" width="24" height="24"/>
<rect class="st2" x="1305.3" y="713.6" width="24" height="24"/>
<rect class="st4" x="1305.3" y="687.1" width="24" height="24"/>
<rect class="st6" x="1305.3" y="660.5" width="24" height="24"/>
<rect class="st8" x="1305.3" y="634" width="24" height="24"/>
<rect class="st8" x="1305.3" y="607.5" width="24" height="24"/>
<rect class="st2" x="1305.3" y="793.1" width="24" height="24"/>
<rect class="st8" x="1305.3" y="554.5" width="24" height="24"/>
<rect class="st7" x="1305.3" y="527.9" width="24" height="24"/>
<rect class="st5" x="1305.3" y="501.4" width="24" height="24"/>
<rect class="st5" x="1305.3" y="448.4" width="24" height="24"/>
<rect class="st5" x="1305.3" y="421.9" width="24" height="24"/>
<rect class="st2" x="1332.7" y="819.7" width="24" height="24"/>
<rect class="st4" x="1332.7" y="793.1" width="24" height="24"/>
<rect class="st2" x="1332.7" y="766.6" width="24" height="24"/>
<rect class="st2" x="1332.7" y="740.1" width="24" height="24"/>
<rect class="st2" x="1332.7" y="713.6" width="24" height="24"/>
<rect class="st5" x="1332.7" y="687.1" width="24" height="24"/>
<rect class="st2" x="1332.7" y="660.5" width="24" height="24"/>
<rect class="st8" x="1332.7" y="634" width="24" height="24"/>
<rect class="st1" x="1332.7" y="607.5" width="24" height="24"/>
<rect class="st7" x="1332.7" y="581" width="24" height="24"/>
<rect class="st8" x="1332.7" y="554.5" width="24" height="24"/>
<rect class="st2" x="1332.7" y="527.9" width="24" height="24"/>
<rect class="st5" x="1332.7" y="501.4" width="24" height="24"/>
<rect class="st5" x="1332.7" y="474.9" width="24" height="24"/>
<rect class="st5" x="1332.7" y="448.4" width="24" height="24"/>
<rect class="st0" x="1359.7" y="819.7" width="24" height="24"/>
<rect class="st2" x="1359.7" y="793.1" width="24" height="24"/>
<rect class="st1" x="1359.7" y="766.6" width="24" height="24"/>
<rect class="st2" x="1359.7" y="740.1" width="24" height="24"/>
<rect class="st6" x="1359.7" y="713.6" width="24" height="24"/>
<rect class="st2" x="1359.7" y="687.1" width="24" height="24"/>
<rect class="st1" x="1359.7" y="660.5" width="24" height="24"/>
<rect class="st8" x="1359.7" y="634" width="24" height="24"/>
<rect class="st8" x="1359.7" y="607.5" width="24" height="24"/>
<rect class="st8" x="1359.7" y="581" width="24" height="24"/>
<rect class="st8" x="1359.7" y="554.5" width="24" height="24"/>
<rect class="st5" x="1359.7" y="501.4" width="24" height="24"/>
<rect class="st5" x="1359.7" y="474.9" width="24" height="24"/>
<rect class="st5" x="1359.7" y="448.4" width="24" height="24"/>
<rect class="st5" x="1359.7" y="421.9" width="24" height="24"/>
<rect class="st0" x="1387.1" y="819.7" width="24" height="24"/>
<rect class="st2" x="1387.1" y="793.1" width="24" height="24"/>
<rect class="st6" x="1387.1" y="766.6" width="24" height="24"/>
<rect class="st5" x="1387.1" y="740.1" width="24" height="24"/>
<rect class="st2" x="1387.1" y="713.6" width="24" height="24"/>
<rect class="st2" x="1387.1" y="687.1" width="24" height="24"/>
<rect class="st8" x="1387.1" y="660.5" width="24" height="24"/>
<rect class="st8" x="1387.1" y="634" width="24" height="24"/>
<rect class="st4" x="1387.1" y="607.5" width="24" height="24"/>
<rect class="st8" x="1387.1" y="581" width="24" height="24"/>
<rect class="st7" x="1387.1" y="554.5" width="24" height="24"/>
<rect class="st8" x="1387.1" y="527.9" width="24" height="24"/>
<rect class="st5" x="1387.1" y="501.4" width="24" height="24"/>
<rect class="st5" x="1387.1" y="474.9" width="24" height="24"/>
<rect class="st5" x="1387.1" y="448.4" width="24" height="24"/>
<rect class="st0" x="1414.1" y="819.7" width="24" height="24"/>
<rect class="st6" x="1414.1" y="793.1" width="24" height="24"/>
<rect class="st2" x="1414.1" y="766.6" width="24" height="24"/>
<rect class="st2" x="1414.1" y="740.1" width="24" height="24"/>
<rect class="st2" x="1414.1" y="713.6" width="24" height="24"/>
<rect class="st2" x="1414.1" y="687.1" width="24" height="24"/>
<rect class="st1" x="1414.1" y="660.5" width="24" height="24"/>
<rect class="st8" x="1414.1" y="634" width="24" height="24"/>
<rect class="st8" x="1414.1" y="607.5" width="24" height="24"/>
<rect class="st8" x="1414.1" y="581" width="24" height="24"/>
<rect class="st2" x="1414.1" y="554.5" width="24" height="24"/>
<rect class="st5" x="1414.1" y="501.4" width="24" height="24"/>
<rect class="st0" x="1441.5" y="819.7" width="24" height="24"/>
<rect class="st4" x="1441.5" y="793.1" width="24" height="24"/>
<rect class="st0" x="1441.5" y="766.6" width="24" height="24"/>
<rect class="st0" x="1441.5" y="740.1" width="24" height="24"/>
<rect class="st6" x="1441.5" y="713.6" width="24" height="24"/>
<rect class="st0" x="1441.5" y="687.1" width="24" height="24"/>
<rect class="st8" x="1441.5" y="660.5" width="24" height="24"/>
<rect class="st8" x="1441.5" y="634" width="24" height="24"/>
<rect class="st8" x="1441.5" y="607.5" width="24" height="24"/>
<rect class="st8" x="1441.5" y="581" width="24" height="24"/>
<rect class="st8" x="1441.5" y="554.5" width="24" height="24"/>
<rect class="st8" x="1441.5" y="527.9" width="24" height="24"/>
<rect class="st5" x="1441.5" y="501.4" width="24" height="24"/>
<rect class="st5" x="1441.5" y="474.9" width="24" height="24"/>
<rect class="st5" x="1441.5" y="448.4" width="24" height="24"/>
<rect class="st5" x="1441.5" y="421.9" width="24" height="24"/>
<rect class="st0" x="1468.5" y="819.7" width="24" height="24"/>
<rect class="st0" x="1468.5" y="793.1" width="24" height="24"/>
<rect class="st4" x="1468.5" y="766.6" width="24" height="24"/>
<rect class="st0" x="1468.5" y="740.1" width="24" height="24"/>
<rect class="st0" x="1468.5" y="713.6" width="24" height="24"/>
<rect class="st0" x="1468.5" y="687.1" width="24" height="24"/>
<rect class="st4" x="1468.5" y="660.5" width="24" height="24"/>
<rect class="st7" x="1468.5" y="634" width="24" height="24"/>
<rect class="st8" x="1468.5" y="607.5" width="24" height="24"/>
<rect class="st8" x="1468.5" y="581" width="24" height="24"/>
<rect class="st4" x="1468.5" y="554.5" width="24" height="24"/>
<rect class="st5" x="1468.5" y="527.9" width="24" height="24"/>
<rect class="st5" x="1468.5" y="501.4" width="24" height="24"/>
<rect class="st5" x="1468.5" y="474.9" width="24" height="24"/>
<rect class="st5" x="1468.5" y="448.4" width="24" height="24"/>
<rect class="st2" x="1468.5" y="421.9" width="24" height="24"/>
<rect class="st0" x="1495.9" y="819.7" width="24" height="24"/>
<rect class="st5" x="1495.9" y="793.1" width="24" height="24"/>
<rect class="st6" x="1495.9" y="766.6" width="24" height="24"/>
<rect class="st0" x="1495.9" y="740.1" width="24" height="24"/>
<rect class="st0" x="1495.9" y="713.6" width="24" height="24"/>
<rect class="st8" x="1495.9" y="660.5" width="24" height="24"/>
<rect class="st8" x="1495.9" y="634" width="24" height="24"/>
<rect class="st8" x="1495.9" y="607.5" width="24" height="24"/>
<rect class="st8" x="1495.9" y="581" width="24" height="24"/>
<rect class="st5" x="1495.9" y="554.5" width="24" height="24"/>
<rect class="st5" x="1495.9" y="527.9" width="24" height="24"/>
<rect class="st5" x="1495.9" y="501.4" width="24" height="24"/>
<rect class="st2" x="1495.9" y="474.9" width="24" height="24"/>
<rect class="st0" x="1522.9" y="819.7" width="24" height="24"/>
<rect class="st0" x="1522.9" y="793.1" width="24" height="24"/>
<rect class="st0" x="1522.9" y="766.6" width="24" height="24"/>
<rect class="st0" x="1522.9" y="740.1" width="24" height="24"/>
<rect class="st4" x="1522.9" y="713.6" width="24" height="24"/>
<rect class="st0" x="1522.9" y="687.1" width="24" height="24"/>
<rect class="st0" x="1522.9" y="660.5" width="24" height="24"/>
<rect class="st8" x="1522.9" y="634" width="24" height="24"/>
<rect class="st8" x="1522.9" y="607.5" width="24" height="24"/>
<rect class="st5" x="1522.9" y="554.5" width="24" height="24"/>
<rect class="st2" x="1522.9" y="527.9" width="24" height="24"/>
<rect class="st5" x="1522.9" y="501.4" width="24" height="24"/>
<rect class="st5" x="1522.9" y="474.9" width="24" height="24"/>
<rect class="st5" x="1522.9" y="448.4" width="24" height="24"/>
<rect class="st5" x="1522.9" y="421.9" width="24" height="24"/>
<rect class="st0" x="1550.3" y="819.7" width="24" height="24"/>
<rect class="st0" x="1550.3" y="793.1" width="24" height="24"/>
<rect class="st0" x="1550.3" y="766.6" width="24" height="24"/>
<rect class="st0" x="1550.3" y="740.1" width="24" height="24"/>
<rect class="st6" x="1550.3" y="713.6" width="24" height="24"/>
<rect class="st0" x="1550.3" y="687.1" width="24" height="24"/>
<rect class="st6" x="1550.3" y="660.5" width="24" height="24"/>
<rect class="st0" x="1550.3" y="634" width="24" height="24"/>
<rect class="st5" x="1550.3" y="607.5" width="24" height="24"/>
<rect class="st5" x="1550.3" y="581" width="24" height="24"/>
<rect class="st5" x="1550.3" y="554.5" width="24" height="24"/>
<rect class="st5" x="1550.3" y="501.4" width="24" height="24"/>
<rect class="st2" x="1550.3" y="474.9" width="24" height="24"/>
<rect class="st2" x="1550.3" y="448.4" width="24" height="24"/>
<rect class="st5" x="1550.3" y="421.9" width="24" height="24"/>
<rect class="st0" x="1577.3" y="819.7" width="24" height="24"/>
<rect class="st6" x="1577.3" y="793.1" width="24" height="24"/>
<rect class="st0" x="1577.3" y="766.6" width="24" height="24"/>
<rect class="st0" x="1577.3" y="740.1" width="24" height="24"/>
<rect class="st0" x="1577.3" y="713.6" width="24" height="24"/>
<rect class="st5" x="1577.3" y="687.1" width="24" height="24"/>
<rect class="st4" x="1577.3" y="660.5" width="24" height="24"/>
<rect class="st4" x="1577.3" y="634" width="24" height="24"/>
<rect class="st5" x="1577.3" y="607.5" width="24" height="24"/>
<rect class="st5" x="1577.3" y="581" width="24" height="24"/>
<rect class="st5" x="1577.3" y="554.5" width="24" height="24"/>
<rect class="st5" x="1577.3" y="527.9" width="24" height="24"/>
<rect class="st5" x="1577.3" y="501.4" width="24" height="24"/>
<rect class="st5" x="1577.3" y="474.9" width="24" height="24"/>
<rect class="st5" x="1577.3" y="448.4" width="24" height="24"/>
</svg>
